<svg width="169" height="218" viewBox="0 0 169 218" fill="none" xmlns="http://www.w3.org/2000/svg">
<g filter="url(#filter0_b_160_16172)">
<rect width="169" height="218" rx="8.19083" fill="url(#paint0_linear_160_16172)" fill-opacity="0.05"/>
<g clip-path="url(#clip0_160_16172)">
<path d="M-111.037 134.942V310.582H235.647V157.365H193.231V134.942H-111.037Z" fill="#FF9A5E"/>
<path d="M-27.5188 134.229H-23.9243V132.151H-20.9829L-20.2208 133.19V120.118L-21.0918 118.914H-19.567V115.851H-16.7345V116.726L-13.2496 116.945L-13.9027 115.104L-12.8131 113.226H-10.6351V113.773L-1.04939 113.226L0.149256 112.023L0.693401 93.4257L-0.613518 92.5509L-1.04939 89.7064C-1.04939 89.7064 -0.395582 88.831 -0.177645 89.7064C0.0402908 90.5819 0.693401 90.9102 0.693401 90.9102C1.23893 90.5819 0.693401 87.9562 0.693401 87.9562L-0.613518 85.3313H1.34721C1.34721 85.3313 2.43689 83.7993 2.87276 83.7993C3.30793 83.7993 9.51702 82.7057 12.4585 82.3774C15.3992 82.0491 18.013 81.6113 19.4296 82.3774C20.8462 83.1434 23.0242 84.0181 23.0242 84.0181L25.8559 89.0505C25.8559 89.0505 50.8012 90.5819 60.2773 90.5819C69.7533 90.5819 94.2627 89.3781 94.2627 89.3781L97.6394 83.471C97.6394 83.471 103.849 81.7452 107.553 81.9522C111.256 82.1585 114.96 83.1427 115.503 83.3615C116.049 83.5804 120.842 85.2212 120.842 85.2212L119.317 87.6279L119.425 90.8L120.188 90.6913C120.188 90.6913 120.188 89.7064 120.842 89.3781C121.495 89.0505 121.387 92.5509 121.387 92.5509L119.753 93.6446L120.95 111.476L121.394 113.007L134.13 113.116L134.786 116.945L137.835 116.726V115.851L140.776 115.742V117.93L142.301 118.367L140.884 120.118L141.756 132.916L142.846 132.588L144.153 131.494L146.44 131.713V134.666H152.758L152.238 151.404L-28.4308 152.168L-27.5188 134.229Z" fill="#FF9A5E"/>
<path d="M-4.3689 152.845V147.594L-1.75505 144.422V134.358L-3.06198 133.921V132.499L-0.556407 131.514C-0.556407 131.514 0.42361 129.982 0.0974002 128.669C-0.230198 127.357 -0.339166 127.138 -0.666069 127.028C-0.992279 126.919 -2.45051 125.607 -2.10278 124.841C-1.75505 124.075 0.55687 123.966 0.163336 123.419C-0.230197 122.872 -0.230198 121.997 0.750514 121.997C1.73123 121.997 1.73122 121.887 1.73122 121.231C1.73122 120.575 2.71124 118.933 1.18639 118.277C-0.339166 117.621 -2.08196 118.277 -2.08196 118.277C-2.08196 118.277 -1.31918 117.069 0.859481 117.072C3.03815 117.074 2.92918 118.605 2.92918 118.605C2.92918 118.605 3.03815 116.741 3.69195 117.072C4.34507 117.402 4.34507 118.933 4.34507 118.933C4.34507 118.933 4.563 117.288 6.19683 117.072C7.83065 116.856 10.1183 118.168 10.1183 118.168C10.1183 118.168 7.72168 117.84 6.74167 118.824C5.76095 119.809 5.43405 120.575 6.52304 121.34C7.61341 122.106 7.50375 122.982 7.17754 124.075C6.84994 125.169 6.30579 126.373 6.74167 127.138C7.17754 127.904 6.19683 128.231 6.41476 129.107C6.6327 129.982 7.72168 130.966 7.83065 131.404C7.93962 131.841 7.93962 132.499 7.93962 132.499L10.1183 133.701L8.81136 134.939H8.04928V145.735L10.7721 148.47L9.90035 152.845H-4.3689Z" fill="#FFC38D"/>
<path d="M116.544 152.195V147.821L118.069 145.414V134.911L116.544 134.474V133.161L118.069 132.505C118.069 132.505 118.178 130.973 118.613 130.427C119.049 129.879 118.178 128.129 117.578 127.582C116.98 127.036 114.584 125.722 114.584 125.722C114.584 125.722 115.137 124.191 116.658 124.957C118.178 125.722 118.087 127.91 118.731 127.364C119.376 126.817 118.74 123.753 118.731 123.645C118.722 123.535 117.96 122.988 118.396 122.222C118.832 121.456 118.554 120.472 119.02 119.925C119.485 119.378 119.704 119.707 120.357 119.925C121.011 120.144 121.882 119.378 122.099 118.612C122.317 117.846 122.861 117.732 123.297 117.078C123.734 116.424 124.496 114.565 124.496 114.565C124.496 114.565 125.149 116.971 125.477 118.284C125.803 119.596 124.278 120.144 124.823 121.128C125.367 122.113 125.585 119.707 126.239 120.691C126.892 121.675 126.239 122.332 126.239 122.332C126.239 122.332 126.783 123.097 127.109 123.864C127.437 124.629 126.674 125.067 126.456 124.738C126.239 124.41 127.162 126.379 127.191 127.364C127.219 128.348 126.129 128.458 126.129 129.442C126.129 130.427 127.546 129.879 127.981 130.208C128.417 130.536 129.832 131.958 129.832 131.958L128.963 133.818L127.654 134.365L128.417 144.976L129.832 147.601V152.195H116.544Z" fill="#FFC38D"/>
<path d="M10.1552 83.2999C10.1927 82.3534 9.59718 81.3692 8.72405 80.9614C8.2278 80.7293 8.08274 80.7732 7.71627 81.0151C7.5615 81.1169 7.57954 82.177 7.17143 81.3183C6.69669 80.3174 8.01333 79.9849 8.12785 79.3499C8.29928 78.3992 6.57454 78.2891 7.61008 77.4624C8.67547 76.6128 8.71364 78.5107 9.1627 79.0349C10.142 80.1794 10.192 78.5135 10.0344 77.7879C9.89285 77.139 9.97614 75.3811 10.8791 76.6274C11.4351 77.3934 11.3483 78.3323 12.1583 78.991C12.8079 79.52 13.1293 79.5883 13.0293 80.5105C12.9828 80.9475 12.9599 82.2014 12.608 82.4865C12.152 82.1052 12.5962 80.9963 11.7425 81.1747C11.6294 81.5964 12.0472 82.0913 11.8973 82.4795C11.5572 83.3675 11.5253 82.1582 11.367 81.9324C10.5696 80.7948 11.4371 83.5146 10.2635 83.2455L10.1552 83.2999Z" fill="#FF9A5E"/>
<path d="M17.6312 82.4867C17.4299 81.3415 17.0683 80.4144 17.5896 79.272C17.77 78.8761 18.0358 78.6677 18.1247 78.2202C18.2101 77.7902 17.854 77.2549 18.5036 77.0569C19.7613 76.6743 18.8312 78.3339 18.8854 78.7123C19.0145 79.6401 19.7474 80.1628 19.4871 81.2299C19.3469 81.8029 19.0776 82.4643 18.8736 83.0247C18.3058 82.7696 18.6855 81.8538 17.9671 81.7841C17.9373 82.1716 18.1878 82.8345 17.686 82.5961L17.6312 82.4867Z" fill="#FF9A5E"/>
<path d="M13.5566 82.8718C13.0701 81.9169 13.1742 81.3356 13.8259 80.6156C14.5082 79.8614 14.3811 79.4251 14.4825 78.374C14.5172 78.0137 14.7386 77.3571 14.647 77.0197C14.52 76.5471 14.1354 76.4516 13.8425 76.0787C13.372 75.4807 13.0277 74.1397 13.5552 73.5117C13.9411 73.8434 14.597 75.7686 14.9884 75.6131C15.3084 75.487 14.5047 74.5488 15.4097 74.7328C15.9407 74.8409 15.9338 75.5288 15.8526 75.917C16.3648 75.8459 16.1399 75.2612 16.3759 74.8848C16.5785 74.5641 17.0491 74.2338 17.4232 74.1055C17.6578 74.0253 18.4727 73.8546 18.5573 74.2296C18.6427 74.6032 17.8889 74.6457 17.6821 74.8179C17.0082 75.3789 17.1324 76.2621 16.6042 76.8002C16.2031 77.2079 15.9511 76.7249 16.0469 77.4693C16.0955 77.8457 16.5515 78.2249 16.6729 78.6054C17.0651 79.8377 17.3962 81.9107 16.226 82.708L13.5566 82.8718Z" fill="#FF9A5E"/>
<path d="M101.781 83.2752C101.513 82.5029 100.874 81.822 100.868 80.9228C100.865 80.5604 100.892 79.9352 100.975 79.5664C101.05 79.2284 101.558 79.0116 101.334 78.5286C101.063 77.9417 100.671 78.3794 100.528 77.6964C100.471 77.4238 100.693 76.5756 100.976 76.4494C102.108 75.9441 101.976 77.7723 102.107 78.2442C102.52 79.7365 103.791 81.1884 103.293 82.8835C103.04 82.5838 102.535 81.127 101.955 81.4839C101.303 81.8861 102.729 82.8598 102.054 83.3847L101.781 83.2752Z" fill="#FF9A5E"/>
<path d="M104.041 82.6962C103.595 81.9093 103.465 80.6331 103.663 79.743C103.854 78.8856 104.43 78.236 104.163 77.3236C104.031 76.8748 103.708 76.7054 103.498 76.3938C103.269 76.0565 103.219 75.7073 102.993 75.3657C102.474 74.5837 101.329 74.6401 100.943 73.7361C101.692 73.6873 102.936 73.7731 103.496 74.3251C103.802 74.6269 104.75 76.7821 104.735 75.326C104.732 75.0193 103.909 74.6081 104.803 74.4359C105.361 74.3286 105.46 75.0507 105.84 75.0277C105.705 75.0354 108.398 73.3319 107.693 74.5893C107.527 74.8841 106.626 74.9245 106.322 75.4243C107.685 75.7742 106.042 76.161 105.836 76.7319C105.605 77.3703 105.924 78.7267 105.905 79.4265C105.894 79.8468 105.654 80.3605 106.278 80.3473C106.793 80.3354 106.84 79.5952 107.102 79.3171C107.915 78.4605 108.398 78.8166 108.399 77.4456C108.399 77.1605 108.237 76.1631 108.573 76.0328C109.015 75.8627 109.38 76.7514 109.434 77.0079C109.538 77.5216 109.233 77.9795 109.325 78.4849C109.408 78.9428 109.789 79.2592 109.88 79.7339C111.263 79.338 109.946 77.5334 110.907 76.964C112.044 76.2914 113.512 78.8501 111.567 78.1113C111.006 79.0257 112.076 79.3241 111.998 80.0176C112.604 80.1452 112.869 81.0317 112.702 81.6026C112.313 82.9255 112.333 81.3775 112.16 81.0554C111.811 80.4121 111.214 80.5278 110.959 81.1105C110.696 81.7113 111.275 82.4836 110.469 82.8551C110.16 82.3721 110.232 81.7085 109.652 81.4332C109.322 81.765 109.478 82.2752 109.26 82.6865C108.394 82.5457 109.319 81.2973 108.825 80.9572C108.348 80.6289 108.341 82.248 108.06 82.4223C107.13 83.0043 107.86 81.2848 107.364 81.2192C106.835 81.1502 106.835 82.531 106.111 82.6412L104.041 82.6962Z" fill="#FF9A5E"/>
<path d="M104.925 95.506L105.416 112.68H117.56L117.779 111.915L117.125 95.506H104.925Z" fill="#FFC38D"/>
<path d="M107.213 94.7522C107.213 94.7522 108.356 96.4481 108.301 97.0489C108.247 97.6511 108.847 111.379 108.738 111.544C108.628 111.708 108.41 112.802 108.466 112.966C108.52 113.13 111.406 113.185 111.406 113.185V111.817L110.644 111.161L109.935 97.0489C109.935 97.0489 110.481 94.9711 110.536 94.7522C110.59 94.5334 107.213 94.7522 107.213 94.7522Z" fill="#FF9A5E"/>
<path d="M111.957 94.6606C112.34 95.1952 112.764 96.8359 112.769 97.1098C112.775 97.3831 113.266 111.604 113.266 111.604C113.266 111.604 112.937 112.807 113.047 113.19C113.156 113.573 115.879 113.19 115.879 113.19V111.932L115.226 111.222L114.627 97.328C114.627 97.328 115.334 94.6731 115.28 94.6606C115.226 94.648 111.957 94.6606 111.957 94.6606Z" fill="#FF9A5E"/>
<path d="M96.4577 99.4622L96.8928 114.558C96.8928 114.558 74.181 115.707 59.6946 115.707C45.2074 115.707 24.1829 115.123 24.1829 115.123L24.4015 99.7355C24.4015 99.7355 48.2016 100.611 62.7443 100.611C77.2856 100.611 96.4577 99.4622 96.4577 99.4622Z" fill="#FFC38D"/>
<path d="M91.542 99.1364C91.4921 99.7365 92.0869 100.121 92.1965 101.05C92.3055 101.981 92.1965 115.326 92.1965 115.326L94.2669 115.126C94.2669 115.126 93.3397 101.543 93.5576 101.05C93.7762 100.558 94.5931 98.9175 94.2669 98.6987C93.94 98.4798 91.542 99.1364 91.542 99.1364Z" fill="#FF9A5E"/>
<path d="M87.1332 99.0063C87.1332 99.6078 87.8418 100.483 87.8966 101.249C87.9508 102.015 87.8966 115.689 87.8966 115.689H90.0205C90.0205 115.689 89.1487 101.796 89.3132 101.304C89.4756 100.811 90.5098 99.2251 90.0205 99.0063C89.5298 98.7881 87.1332 99.0063 87.1332 99.0063Z" fill="#FF9A5E"/>
<path d="M82.6471 99.4684C82.5971 100.145 82.974 100.617 83.2461 101.109C83.5188 101.602 83.2461 102.258 83.2461 102.258L83.573 115.713H85.533C85.533 115.713 84.8799 101.82 84.8799 101.492C84.8799 101.164 85.6975 100.343 85.2609 99.4684C84.8257 98.593 82.6471 99.4684 82.6471 99.4684Z" fill="#FF9A5E"/>
<path d="M78.4242 99.4622C78.3687 100.064 78.4242 100.775 78.8594 101.158C79.2946 101.541 79.1863 102.142 79.1863 102.142L79.1981 115.926L81.2018 115.707L80.6029 101.814C80.6029 101.814 81.2074 101.353 81.2018 100.775C81.1963 100.197 81.2018 99.4622 81.2018 99.4622H78.4242Z" fill="#FF9A5E"/>
<path d="M74.2786 99.7964C74.1731 100.438 74.4424 100.781 74.7151 101.218C74.9872 101.656 74.7151 102.367 74.7151 102.367L74.8359 115.932H76.7848L76.4031 102.258C76.4031 102.258 76.1317 101.547 76.4586 101.273C76.7848 101 76.9479 100.07 76.7848 99.7964C76.621 99.5232 74.2786 99.7964 74.2786 99.7964Z" fill="#FF9A5E"/>
<path d="M70.0114 99.675C69.7387 100.18 69.6304 100.78 70.0114 101.218C70.3925 101.656 70.3925 101.93 70.3925 102.149V116.205L72.2984 115.931L71.9173 102.094C71.9173 102.094 72.1346 101.438 72.2984 101.164C72.4622 100.891 72.2984 99.675 72.2984 99.675H70.0114Z" fill="#FF9A5E"/>
<path d="M65.542 99.6384C65.4324 100.252 66.0313 100.854 66.141 101.511C66.25 102.166 66.141 116.169 66.141 116.169H67.9928L67.6117 101.729C67.6117 101.729 68.5362 100.745 68.3197 100.143C68.1017 99.5408 65.542 99.6384 65.542 99.6384Z" fill="#FF9A5E"/>
<path d="M57.0908 99.6794C56.8194 100.348 57.0366 101.223 57.4732 101.606C57.9084 101.989 57.4732 102.59 57.4732 102.59L56.9714 116.647L59.0522 116.21V102.59C59.0522 102.59 59.6512 100.841 59.5956 100.129C59.5415 99.418 57.0908 99.6794 57.0908 99.6794Z" fill="#FF9A5E"/>
<path d="M52.879 99.9305C52.661 100.487 52.4979 101.189 52.879 101.517C53.26 101.845 52.879 102.501 52.879 102.501L52.8491 116.175H54.839L54.5669 102.337C54.5669 102.337 54.4038 101.735 54.839 101.352C55.2742 100.97 55.3838 99.9305 55.22 99.9305H52.879Z" fill="#FF9A5E"/>
<path d="M48.4521 99.6574C48.1772 100.413 47.9628 100.982 48.4521 101.365C48.9428 101.748 48.7249 102.404 48.7249 102.404L48.4667 116.625L50.4135 116.188L50.1956 102.295C50.1956 102.295 49.9228 101.53 50.4135 101.256C50.9028 100.982 50.957 99.8093 50.7946 99.6574C50.6308 99.5054 48.4521 99.6574 48.4521 99.6574Z" fill="#FF9A5E"/>
<path d="M44.3846 99.6393C44.1069 100.301 44.1118 100.636 44.3846 101.128C44.6573 101.62 44.3846 102.167 44.3846 102.167L44.1784 116.17H45.9636V101.894C45.9636 101.894 46.8894 100.229 46.5091 99.6393C46.128 99.0496 44.3846 99.6393 44.3846 99.6393Z" fill="#FF9A5E"/>
<path d="M39.9169 99.4622C39.6968 100.216 39.5351 101.048 39.9169 101.431C40.2986 101.814 40.1896 102.307 40.1896 102.307L39.9453 115.926H41.7138V102.088C41.7138 102.088 41.7145 101.431 41.9858 101.103C42.2586 100.775 42.0955 99.8205 41.9858 99.6686C41.8769 99.5173 39.9169 99.4622 39.9169 99.4622Z" fill="#FF9A5E"/>
<path d="M35.656 99.3821C35.3832 99.7111 35.3832 100.695 35.656 101.024C35.9288 101.352 35.656 102.063 35.656 102.063L35.4519 116.175L37.2898 115.901V101.953C37.2898 101.953 37.3453 101.242 37.5626 101.079C37.7805 100.914 37.9977 99.8247 37.7805 99.5766C37.5626 99.3285 35.656 99.3821 35.656 99.3821Z" fill="#FF9A5E"/>
<path d="M30.9892 99.3819C30.8261 99.6064 30.445 100.591 30.9892 100.864C31.5333 101.138 31.5333 101.794 31.5333 101.794L31.1196 116.179L33.0589 115.905V101.794C33.0589 101.794 32.623 100.973 33.0589 100.754C33.494 100.536 33.494 99.1561 33.3309 99.0529C33.1678 98.9498 30.9892 99.3819 30.9892 99.3819Z" fill="#FF9A5E"/>
<path d="M26.6522 99.0793C26.4891 99.5233 26.2704 100.343 26.6522 100.726C27.0332 101.109 27.1422 101.711 27.1422 101.711L26.2163 116.205H28.5039V101.82C28.5039 101.82 28.9391 101.055 29.157 100.671C29.375 100.289 29.157 99.4083 29.157 99.4083L26.6522 99.0793Z" fill="#FF9A5E"/>
<path d="M3.5397 95.8328L3.23077 113.418L15.4499 113.117L15.8766 95.6413L3.5397 95.8328Z" fill="#FFC38D"/>
<path d="M5.7441 94.953C5.58099 95.3356 5.63513 96.2111 5.96134 96.5394C6.28894 96.8677 6.34307 97.4692 6.34307 97.4692C6.34307 97.4692 5.56572 111.58 5.65456 111.745C5.7441 111.908 5.03546 112.237 5.03546 112.237V113.988H7.9762V112.073L7.64999 111.745L7.9762 97.4692C7.9762 97.4692 8.36002 96.7889 8.35794 96.2661C8.35655 95.7427 8.35794 94.953 8.35794 94.953H5.7441Z" fill="#FF9A5E"/>
<path d="M10.5483 94.953C10.4934 95.2813 10.1672 96.1016 10.5483 96.3205C10.9293 96.5394 11.0931 97.3047 11.0931 97.3047L10.7294 111.964H9.94928L10.1249 113.769H12.7262V97.4141C12.7262 97.4141 13.1572 96.8767 13.2398 96.2661C13.3231 95.6549 13.1142 94.953 13.1142 94.953H10.5483Z" fill="#FF9A5E"/>
<path d="M34.7734 140.48L35.8617 137.964L35.3176 136.323L35.8617 134.935V125.165C35.8617 125.165 37.0604 122.431 42.9426 121.555C48.8247 120.68 52.311 120.68 52.6379 120.571C52.9641 120.462 54.0531 119.914 54.0531 119.914V118.602L55.7966 118.055C55.7966 118.055 56.4497 117.862 56.9945 117.028C57.5394 116.195 56.8849 113.351 56.9945 112.476C57.1028 111.6 56.3414 109.303 56.558 108.976C56.7766 108.647 58.5194 108.866 58.738 107.881C58.9546 106.897 59.6084 104.819 59.4994 104.271C59.3911 103.725 58.0842 101.318 58.5194 100.333C58.9546 99.3491 58.6284 99.1302 58.738 98.2548C58.8463 97.38 59.718 95.5204 60.2615 95.5204C60.8063 95.5204 60.3712 93.8796 61.3512 94.4261C62.3319 94.9733 61.3109 95.5204 62.1487 95.9581C62.9857 96.3952 63.3126 97.4895 63.3126 98.0359C63.3126 98.5831 63.7478 99.4585 63.9664 100.443C64.183 101.428 64.8375 103.944 63.9664 103.506C63.0947 103.068 61.8558 102.522 62.1487 103.178C62.4415 103.834 62.1146 105.256 62.6595 105.912C63.2029 106.569 63.5298 107.444 63.856 107.881C64.183 108.319 65.7078 108.757 65.7078 108.757C65.7078 108.757 66.2526 110.616 65.7078 111.273C65.1644 111.929 65.2726 112.476 65.3816 113.679C65.4913 114.883 65.3816 117.028 65.3816 117.028C65.3816 117.028 66.363 118.711 67.2334 119.04C68.1044 119.367 68.4313 119.805 69.0851 120.352L69.7382 120.899C69.7382 120.899 74.2052 121.118 76.8198 121.227C79.4336 121.336 82.2515 121.92 84.8695 122.913C87.0586 123.743 86.7317 124.777 86.7317 124.777C86.7317 124.777 86.4054 134.908 86.7317 134.984C87.0586 135.059 86.1868 136.372 86.7317 136.809C87.2765 137.247 87.822 140.42 87.6034 140.529C87.3855 140.639 34.7734 140.48 34.7734 140.48Z" fill="#FFC38D"/>
<path d="M22.7457 142.728H110.433V144.31H22.7457V142.728Z" fill="#FFC38D"/>
<path d="M14.5322 145.833H118.651V147.416H14.5322V145.833Z" fill="#FFC38D"/>
<path d="M9.74207 148.939H123.396V150.521H9.74207V148.939Z" fill="#FFC38D"/>
<path d="M129.679 151.533V133.319L129.241 132.702L134.148 125.839L152.724 126.631L155.879 151.182L129.679 151.533Z" fill="#FFC38D"/>
<path d="M196.546 125.441C196.457 124.033 195.407 123.945 195.407 123.945L194.619 122.978L193.129 123.065L192.165 121.657L189.098 121.393L188.134 123.682L183.052 121.657C183.052 121.657 183.578 117.345 183.928 116.818C184.279 116.29 183.315 115.585 183.056 115.146C182.798 114.706 182.965 113.562 183.052 112.77C183.14 111.978 182.001 112.066 182.001 112.066C182.001 112.066 180.58 107.418 176.756 105.925C176.686 105.752 176.624 105.589 176.599 105.466C176.511 105.038 176.774 104.824 176.95 104.154C177.126 103.485 176.459 103.097 176.143 102.851C175.826 102.605 175.862 102.111 176.213 101.9C176.563 101.689 176.95 101.441 176.704 101.054C176.459 100.667 176.459 100.385 176.108 99.9609C175.756 99.5392 175.301 99.8208 174.932 99.6444C174.563 99.4681 174.598 99.0805 174.704 98.7989C174.809 98.5166 174.88 98.1291 174.704 97.9883C174.529 97.8482 174.704 97.5652 174.88 97.1784C175.054 96.7901 174.775 96.6145 174.283 96.5086C173.792 96.4033 173.721 96.6493 173.616 97.0724C173.512 97.4948 174.213 97.7416 173.914 97.8831C173.615 98.0246 173.827 98.7634 173.897 99.0101C173.967 99.2562 173.827 99.5733 173.371 99.5392C172.915 99.5029 172.248 99.926 172.283 100.208C172.319 100.491 172.178 100.56 171.674 100.737C171.17 100.913 172.319 101.582 172.459 101.934C172.598 102.287 172.634 102.711 172.022 103.063C171.41 103.415 171.756 104.472 171.924 104.824C172.039 105.066 172.057 105.428 171.949 105.812C167.846 107.058 165.864 111.29 165.79 111.89C165.702 112.595 164.827 115.146 164.827 115.146C164.827 115.146 164.388 115.497 164.126 115.585C163.862 115.674 164.476 116.466 164.476 116.466C164.476 116.466 164.914 117.082 164.739 117.523C164.564 117.963 165.177 119.457 165.177 119.457V121.922H160.62C160.27 121.922 156.415 123.33 155.889 123.506C155.363 123.682 149.229 125.178 149.229 125.178L150.369 127.466L150.281 132.745L146.864 133.713L148.003 134.857L148.178 137.408V152.455L196.984 150.959V133.273C196.984 133.273 196.634 126.849 196.546 125.441Z" fill="#FF9A5E"/>
<path d="M155.591 132.122C155.695 132.085 164.854 132.508 164.854 132.508L167.591 132.119L172.292 132.313L176.012 131.91L191.309 133.002H195.414L190.046 131.31L189.695 131.91L180.573 131.31L176.994 130.571L174.047 130.922L171.485 129.795L165.626 131.399L158.538 131.063L155.591 132.122Z" fill="#FFC38D"/>
<path d="M-111.029 192.417H235.655V310.554H-111.029V192.417Z" fill="#B54D28"/>
<path d="M-73.4158 139.589C-73.4158 139.589 -90.7327 143.423 -93.4326 147.724C-96.1325 152.025 -92.7816 154.455 -92.7816 154.455C-92.7816 154.455 -95.1088 191.762 -95.1088 192.041C-95.1088 192.322 -88.8712 195.595 -83.4707 195.968C-78.0709 196.343 -74.9053 193.631 -74.9053 193.631L-63.733 198.305L9.44484 193.631L-12.8061 191.948L-13.9236 169.602L5.06947 164.126L4.78976 160.907L6.46523 158.195L8.60711 157.727L-20.4408 133.418L-45.8574 137.812L-69.9712 131.922L-73.4158 139.589Z" fill="#B54D28"/>
<path d="M-55.3735 144.26L2.90836 157.35L-21.9495 137.623L-55.3735 144.26Z" fill="#D16739"/>
<path d="M-3.23588 163.631C-4.80515 164.035 -5.61026 164.8 -5.33125 165.126C-5.05154 165.453 -4.31167 167.346 -4.31167 167.346L-3.58499 192.101C-3.58499 192.101 -5.05154 193.713 -3.58499 193.783C-2.11913 193.853 -1.00169 193.853 -0.372873 193.783C0.255252 193.713 0.255252 192.521 -0.372873 192.24C-1.00169 191.961 -1.4209 167.346 -1.4209 167.346C-1.4209 167.346 -1.00169 164.646 -1.0711 164.139C-1.1412 163.631 -2.24892 163.376 -3.23588 163.631Z" fill="#D16739"/>
<path d="M2.86955 164.217C1.16493 164.117 0.0752514 164.791 0.58747 165.435C1.10038 166.08 1.5314 167.202 1.66535 167.973C1.79861 168.744 2.89245 191.815 2.86955 192.095C2.84595 192.376 0.971981 193.648 2.5482 193.777C4.12511 193.906 4.87123 193.831 6.12817 193.568C7.03462 193.378 7.00408 192.657 6.46063 192.235C5.91857 191.815 4.94063 167.903 4.94063 167.903C4.94063 167.903 6.10458 164.501 5.10374 164.133C4.1029 163.765 3.869 164.275 2.86955 164.217Z" fill="#D16739"/>
<path d="M154.066 154.89H168.536V151.464C168.536 151.464 179.428 150.588 193.253 153.176C207.079 155.764 211.269 161.235 211.269 161.235L219.229 197.839L154.067 198.627L154.066 154.89Z" fill="#B54D28"/>
<path d="M157.829 164.189C158.562 163.277 160.064 162.506 161.635 163.381C163.206 164.257 163.38 170.638 163.38 170.638L160.236 170.885L157.829 164.189Z" fill="#D16739"/>
<path d="M170.231 162.255C174.316 162.254 174.316 166.392 174.316 166.392V171.16L167.054 171.37C167.054 171.37 166.6 167.829 166.705 166.041C166.809 164.253 168.031 162.255 170.231 162.255Z" fill="#D16739"/>
<path d="M134.822 119.712L136.304 121.944L137.678 122.688L142.229 133.315H144.77L145.616 134.378V142.879L148.262 150.638H155.246C155.246 150.638 156.833 153.4 156.833 153.719V159.624L160.649 170.832L167.838 170.404V173.006L169.081 174.052V179.756L175.749 195.378L94.9277 196.14C94.9277 196.14 99.3725 149.999 99.3725 149.362C99.3725 148.724 98.6305 144.58 99.6896 144.155C100.747 143.729 101.7 143.304 101.806 142.135C101.911 140.966 101.382 139.691 101.489 138.948C101.594 138.204 104.452 132.872 114.822 127.249C125.192 121.625 134.822 119.712 134.822 119.712Z" fill="#B54D28"/>
<path d="M164.849 194.415C164.849 194.415 164.71 187.59 164.524 185.533C164.339 183.476 163.547 180.904 160.288 180.765C157.029 180.624 156.564 183.803 156.61 185.768C156.657 187.73 156.797 194.883 156.797 194.883L164.849 194.415Z" fill="#D16739"/>
<path d="M151.924 194.894C151.924 194.894 151.971 187.975 151.924 185.451C151.878 182.927 150.528 180.58 147.829 180.771C145.128 180.963 144.15 184.049 144.244 185.919C144.337 187.789 144.238 194.894 144.238 194.894H151.924Z" fill="#D16739"/>
<path d="M139.235 194.867C139.235 194.867 139.283 188.23 139.235 185.658C139.19 183.086 138.119 181.356 135.93 181.356C133.743 181.356 132.486 183.788 132.486 185.938C132.486 188.089 132.207 194.867 132.207 194.867H139.235Z" fill="#D16739"/>
<path d="M128.192 194.68C128.192 194.68 128.471 188.837 128.565 186.031C128.658 183.226 127.308 181.356 125.632 181.356C123.957 181.356 122.605 183.881 122.373 185.984C122.14 188.089 121.955 194.68 121.955 194.68H128.192Z" fill="#D16739"/>
<path d="M118.479 194.69C118.479 194.69 119.179 188.053 119.271 185.762C119.364 183.471 117.781 182.162 116.618 182.208C115.455 182.256 113.918 183.471 113.778 186.136C113.638 188.8 113.313 194.878 113.313 194.878L118.479 194.69Z" fill="#D16739"/>
<path d="M111.003 194.283C111.003 194.283 111.562 187.317 111.655 185.587C111.748 183.857 110.815 182.502 109.653 182.548C108.49 182.595 107.512 184.418 107.373 186.289C107.231 188.159 106.535 194.89 106.535 194.89L111.003 194.283Z" fill="#D16739"/>
<path d="M103.979 194.205C103.979 194.205 104.537 193.877 104.723 193.41C104.909 192.943 105.422 187.051 105.608 185.603C105.794 184.153 105.003 182.845 104.351 182.845C103.699 182.845 102.861 184.715 102.675 186.865C102.49 189.016 101.79 194.205 101.79 194.205H103.979Z" fill="#D16739"/>
<path d="M99.587 194.167C99.587 194.167 100.704 188.136 100.796 186.734C100.89 185.332 101.402 183.228 100.192 183.228C98.9811 183.228 98.6084 186.734 98.516 188.113C98.4223 189.492 97.7241 194.167 97.7241 194.167H99.587Z" fill="#D16739"/>
<path d="M100.35 176.542C101.048 176.495 101.978 175.746 102.212 175.138C102.445 174.531 103.096 170.511 103.142 169.202C103.19 167.893 102.91 167.238 102.259 167.379C101.607 167.519 101.096 169.458 101.002 170.849C100.909 172.24 100.35 176.542 100.35 176.542Z" fill="#D16739"/>
<path d="M104.556 175.488C105.023 175.348 106.604 175.114 106.792 174.272C106.977 173.431 107.537 168.756 107.583 167.728C107.629 166.699 107.117 165.998 106.373 165.998C105.627 165.998 104.837 167.587 104.556 169.738C104.279 171.889 103.673 175.067 103.859 175.488C104.045 175.909 104.556 175.488 104.556 175.488Z" fill="#D16739"/>
<path d="M109.077 174.822C109.633 174.867 111.182 174.447 111.64 174.26C112.099 174.073 112.658 173.84 112.706 173.184C112.752 172.531 113.263 168.94 113.31 167.463C113.356 165.985 112.718 164.677 111.64 164.723C110.564 164.77 109.912 166.407 109.633 167.809C109.353 169.211 109.077 174.822 109.077 174.822Z" fill="#D16739"/>
<path d="M115.347 173.937C115.347 173.937 119.583 173.377 119.862 173.19C120.141 173.002 120.374 168.55 120.468 166.919C120.562 165.289 120.468 163.185 118.326 163.325C116.186 163.466 115.905 165.906 115.719 167.374C115.534 168.841 115.347 173.937 115.347 173.937Z" fill="#D16739"/>
<path d="M123.396 172.981C124.327 172.887 128.982 172.467 128.982 172.467C128.982 172.467 129.448 167.136 129.494 165.408C129.541 163.678 128.657 161.574 126.446 161.855C124.233 162.135 123.768 164.285 123.629 166.016C123.489 167.746 123.396 172.981 123.396 172.981Z" fill="#D16739"/>
<path d="M132.8 171.981L139.898 171.663C139.898 171.663 139.923 166.612 139.876 164.649C139.83 162.687 139.319 160.677 136.571 160.724C133.825 160.77 133.219 163.106 133.126 164.649C133.033 166.193 132.8 171.981 132.8 171.981Z" fill="#D16739"/>
<path d="M144.068 171.443L151.749 171.365C151.749 171.365 151.843 166.609 151.749 163.898C151.657 161.186 150.395 159.877 147.929 159.831C145.466 159.783 144.395 161.887 144.302 163.804C144.208 165.721 144.068 171.443 144.068 171.443Z" fill="#D16739"/>
<path d="M140.596 151.863C140.596 151.863 140.829 146.815 140.829 145.412C140.829 144.01 140.176 142 137.663 142.187C135.149 142.374 134.497 144.617 134.403 146.02C134.311 147.423 133.986 152.659 133.986 152.659L140.596 151.863Z" fill="#D16739"/>
<path d="M124.751 154.3L130.57 153.132C130.57 153.132 130.896 148.363 130.942 146.774C130.989 145.185 130.012 143.969 128.243 144.203C126.473 144.437 125.402 146.494 125.355 147.756C125.309 149.018 124.751 154.3 124.751 154.3Z" fill="#D16739"/>
<path d="M117.041 156.159L121.975 154.709C121.975 154.709 122.488 150.503 122.534 148.726C122.58 146.949 121.882 145.967 120.463 146.154C119.042 146.341 118.089 148.773 117.89 150.128C117.693 151.484 117.041 156.159 117.041 156.159Z" fill="#D16739"/>
<path d="M111.195 157.668L115.033 156.499C115.033 156.499 115.638 152.572 115.591 150.888C115.545 149.206 115.172 148.084 113.776 148.458C112.38 148.832 111.775 151.122 111.682 152.245C111.588 153.366 111.195 157.668 111.195 157.668Z" fill="#D16739"/>
<path d="M109.14 158.081C109.323 157.614 109.788 153.968 109.881 152.659C109.975 151.35 109.51 150.321 108.532 150.602C107.555 150.882 106.949 153.594 106.856 154.294C106.763 154.996 106.112 159.81 106.112 159.81L109.14 158.081Z" fill="#D16739"/>
<path d="M103.156 161.173L104.827 160.004C104.827 160.004 105.432 156.218 105.525 154.909C105.618 153.6 105.575 152.172 104.619 153.026C103.662 153.88 103.321 155.36 103.156 156.545C103.006 157.61 102.638 161.453 102.638 161.453L103.156 161.173Z" fill="#D16739"/>
<path d="M84.3047 159.336H81.9269L81.5556 148.966L82.9305 146.355L20.1178 145.833L21.7523 147.922L21.8259 155.756L21.2318 156.277L21.3803 158.74L19.523 159.263V160.082L21.5289 161.874L20.8605 194.775L28.8838 194.707V181.01C28.8838 178.682 30.7627 176.795 33.0808 176.795C35.399 176.795 37.2785 178.682 37.2785 181.01V194.635L44.4107 194.575V174.818C44.4107 170.594 47.82 167.17 52.0253 167.17C56.2306 167.17 59.6398 170.594 59.6398 174.818V194.446L66.8761 194.384V181.01C66.8761 178.682 68.755 176.795 71.0731 176.795C73.3906 176.795 75.2694 178.682 75.2694 181.01V194.314L82.4474 194.253L81.9269 162.321L84.3047 159.336Z" fill="#B54D28"/>
<path d="M33.0786 169.592C33.0786 171.178 31.7981 172.465 30.2177 172.465C28.6387 172.465 27.3582 171.178 27.3582 169.592C27.3582 168.006 28.6387 166.72 30.2177 166.72C31.7981 166.72 33.0786 168.006 33.0786 169.592Z" fill="#D16739"/>
<path d="M39.5183 169.592C39.5183 171.178 38.2378 172.465 36.6581 172.465C35.0791 172.465 33.7979 171.178 33.7979 169.592C33.7979 168.006 35.0791 166.72 36.6581 166.72C38.2378 166.72 39.5183 168.006 39.5183 169.592Z" fill="#D16739"/>
<path d="M70.8661 169.592C70.8661 171.178 69.5863 172.465 68.0059 172.465C66.4269 172.465 65.1457 171.178 65.1457 169.592C65.1457 168.006 66.4269 166.72 68.0059 166.72C69.5863 166.72 70.8661 168.006 70.8661 169.592Z" fill="#D16739"/>
<path d="M77.3052 169.592C77.3052 171.178 76.0239 172.465 74.4449 172.465C72.8659 172.465 71.5847 171.178 71.5847 169.592C71.5847 168.006 72.8659 166.72 74.4449 166.72C76.0239 166.72 77.3052 168.006 77.3052 169.592Z" fill="#D16739"/>
<path d="M23.5207 164.382H26.7155L26.0464 184.002L26.7155 184.6V185.57L25.9722 186.539L26.1207 192.657L27.3096 194.374V195.269L21.2178 195.716L21.7377 193.478L22.2582 192.583L22.5546 186.539C22.5546 186.539 21.9605 186.166 22.0347 185.346C22.109 184.525 22.8517 184.525 22.9266 184.301L23.0002 184.078L23.8178 166.694L23.5207 164.382Z" fill="#D16739"/>
<path d="M39.1506 164.382H42.3453L41.602 166.694L41.6762 184.078L42.3453 184.749V185.57L43.1622 186.242L42.4938 187.211L42.0483 192.284L42.6424 193.329L42.4938 195.12L37.7388 195.417V193.329L38.5564 192.284V186.688L38.0359 185.644C38.4822 185.122 38.4079 184.525 38.8535 184.227L39.2991 183.928L39.4906 166.694L39.1506 164.382Z" fill="#D16739"/>
<path d="M62.0046 164.406L62.5995 166.718L62.3024 183.653C62.3024 183.653 62.0789 184.102 62.0046 184.4C61.9304 184.698 62.0789 185.146 62.0046 185.146H61.0385C61.0385 185.146 61.8561 185.967 61.8186 186.19C61.7825 186.414 61.8186 192.159 61.8186 192.159L61.0385 193.054V195.144L65.8685 195.068V192.905L65.1557 191.786V186.34L65.8685 185.221L65.1557 184.997V183.878L64.5303 183.207L64.4575 166.718C64.4575 166.718 65.3354 164.554 65.1557 164.406C64.9766 164.256 62.0046 164.406 62.0046 164.406Z" fill="#D16739"/>
<path d="M77.2959 164.336C76.9135 164.807 77.8165 166.715 77.8165 166.715C77.8165 166.715 77.6673 183.278 77.5562 183.576C77.4452 183.875 77.2203 184.322 77.2959 184.621C77.3702 184.919 76.6276 185.292 76.6276 185.292C76.6276 185.292 76.926 185.964 77.2231 186.411C77.5194 186.858 77.2959 191.932 77.2959 191.932L76.6276 192.604V195.14L81.3083 195.065V192.828L80.2672 191.708V186.336C80.2672 186.336 81.0848 185.665 81.0848 185.292C81.0848 184.919 80.3422 184.77 80.1944 184.023C80.0451 183.278 79.823 182.531 79.823 182.531L79.6738 166.715C79.6738 166.715 80.4165 164.642 80.3422 164.336C80.2672 164.03 77.5916 163.971 77.2959 164.336Z" fill="#D16739"/>
<path d="M22.658 158.56V155.501C22.658 155.501 23.4007 154.978 23.4749 154.382C23.5492 153.785 22.9551 150.502 23.4749 150.204C23.9955 149.906 24.2918 149.98 24.2918 149.682C24.2918 149.383 23.4749 149.084 24.2918 148.562C25.1094 148.04 25.3322 148.786 25.3322 149.383C25.3322 149.98 26.0006 149.756 26.0749 150.354C26.1492 150.95 25.9264 152.965 26.0749 153.785C26.2234 154.606 25.512 155.501 26.0909 155.576C26.669 155.65 27.0403 156.247 27.0403 156.247V158.56H22.658Z" fill="#D16739"/>
<path d="M40.2747 148.388C39.6994 148.439 39.5689 148.938 39.6431 149.212C39.7174 149.485 39.7535 149.683 39.4634 149.783C39.1733 149.883 38.9498 149.833 38.9498 150.231C38.9498 150.629 38.9005 152.793 38.9498 153.713C38.9997 154.633 39.2281 155.354 38.9283 155.478C38.6277 155.603 38.4799 155.628 38.5042 155.901C38.5285 156.175 38.6527 156.274 38.6527 156.398C38.6527 156.522 38.5014 158.213 38.5014 158.213H42.1196C42.1196 158.213 41.971 156.474 42.1196 156.299C42.2681 156.125 42.1688 155.926 41.9953 155.752C41.8225 155.577 41.649 155.279 41.649 155.055C41.649 154.832 41.3269 152.22 41.3769 151.723C41.4262 151.225 41.3769 149.982 41.1541 149.833C40.9306 149.683 40.6835 149.808 40.6835 149.658C40.6835 149.51 40.8564 148.336 40.2747 148.388Z" fill="#D16739"/>
<path d="M61.8007 158.025V156.01C61.8007 156.01 62.0235 155.513 62.197 155.314C62.3699 155.115 62.3699 154.096 62.3699 153.822C62.3699 153.548 62.8418 152.306 62.6676 151.857C62.4934 151.411 62.3206 151.012 62.4698 150.515C62.6183 150.017 63.0882 149.594 63.2617 149.52C63.4352 149.445 63.2117 148.6 63.7823 148.525C64.3514 148.45 64.5249 148.749 64.3771 149.023C64.2272 149.296 64.0044 149.718 64.2771 149.743C64.5492 149.769 64.9955 149.594 64.9955 150.167C64.9955 150.739 65.0697 151.36 64.9955 151.883C64.9212 152.405 65.2176 152.898 65.1204 153.31C65.0212 153.723 64.8962 153.698 64.9698 154.22C65.0441 154.742 65.1107 155.862 65.1405 155.986C65.169 156.111 65.1405 158.025 65.1405 158.025H61.8007Z" fill="#D16739"/>
<path d="M77.0152 158.24L76.916 156.449C76.916 156.449 76.7917 155.902 77.0152 155.728C77.2373 155.553 77.5101 155.38 77.4365 155.082C77.3622 154.783 77.0923 152.147 77.1644 151.7C77.2373 151.252 77.3865 150.431 77.6086 150.257C77.8328 150.083 78.3277 150.083 78.2284 149.809C78.1292 149.536 78.1799 148.939 78.7233 148.939C79.2681 148.939 79.5423 149.263 79.3674 149.611C79.1953 149.959 79.0204 150.207 79.23 150.233C79.4431 150.257 79.7144 150.257 79.7887 150.755C79.8623 151.252 79.8879 152.321 79.9865 152.918C80.0858 153.515 80.0108 154.808 79.9865 155.057C79.9622 155.305 79.9622 155.678 80.0379 155.703C80.11 155.728 80.2336 156.027 80.2336 156.102V158.24H77.0152Z" fill="#D16739"/>
</g>
<rect x="0.341284" y="0.341284" width="168.317" height="217.317" rx="7.84954" stroke="url(#paint1_linear_160_16172)" stroke-width="0.682569"/>
</g>
<defs>
<filter id="filter0_b_160_16172" x="-34.1284" y="-34.1284" width="237.257" height="286.257" filterUnits="userSpaceOnUse" color-interpolation-filters="sRGB">
<feFlood flood-opacity="0" result="BackgroundImageFix"/>
<feGaussianBlur in="BackgroundImage" stdDeviation="17.0642"/>
<feComposite in2="SourceAlpha" operator="in" result="effect1_backgroundBlur_160_16172"/>
<feBlend mode="normal" in="SourceGraphic" in2="effect1_backgroundBlur_160_16172" result="shape"/>
</filter>
<linearGradient id="paint0_linear_160_16172" x1="84.5" y1="0" x2="84.5" y2="218" gradientUnits="userSpaceOnUse">
<stop stop-color="white"/>
<stop offset="1" stop-color="white" stop-opacity="0"/>
</linearGradient>
<linearGradient id="paint1_linear_160_16172" x1="84.5" y1="0" x2="84.5" y2="218" gradientUnits="userSpaceOnUse">
<stop stop-color="white" stop-opacity="0.3"/>
<stop offset="1" stop-color="white" stop-opacity="0.15"/>
</linearGradient>
<clipPath id="clip0_160_16172">
<rect width="169" height="218" fill="white"/>
</clipPath>
</defs>
</svg>
