<svg width="169" height="218" viewBox="0 0 169 218" fill="none" xmlns="http://www.w3.org/2000/svg">
<g filter="url(#filter0_b_160_320)">
<rect width="169" height="218" rx="8.11765" fill="white" fill-opacity="0.05"/>
<g clip-path="url(#clip0_160_320)">
<path d="M47.4657 78.4423C47.4657 84.4839 42.5967 89.3817 36.5906 89.3817C30.5844 89.3817 25.7154 84.4839 25.7154 78.4423C25.7154 72.4006 30.5844 67.5028 36.5906 67.5028C42.5967 67.5028 47.4657 72.4006 47.4657 78.4423Z" fill="white"/>
<g opacity="0.35">
<g opacity="0.35">
<path opacity="0.35" d="M15.8409 133.953C12.029 138.794 6.5164 142.277 0.503813 143.541C-0.372766 143.727 -1.41602 143.817 -2.0395 143.171C-3.01176 142.159 -2.28951 140.408 -2.8204 139.194C-3.42844 137.806 -4.52108 137.344 -5.74953 136.661C-5.91929 136.567 -6.0767 136.474 -6.22485 136.384C-5.46556 136.17 -4.768 136.036 -4.15378 135.99C4.17989 135.369 10.6616 138.163 15.2914 134.437C15.4736 134.292 15.6557 134.13 15.8409 133.953Z" fill="#D34242"/>
</g>
</g>
<g opacity="0.2">
<g opacity="0.2">
<path opacity="0.2" d="M8.10709 157.768H-35.6416V153.731C-35.6416 153.731 -18.5699 141.138 -8.46766 137.189C-10.8906 143.358 -7.18057 151.226 -0.880932 153.219C1.08828 153.84 3.21492 153.952 5.10388 154.79C6.41566 155.368 7.6225 156.47 8.10709 157.768Z" fill="#D34242"/>
</g>
</g>
<path d="M0.884943 150.731L0.919463 195.125L169.531 194.525L169.369 148.869C169.369 148.869 0.487313 150.736 0.884943 150.731Z" fill="#FFCCCE"/>
<path d="M0.899852 158.424L0.917598 198.082L169.532 197.482L169.387 156.696C169.387 156.696 0.502215 158.428 0.899852 158.424Z" fill="#FF9A9F"/>
<path d="M68.367 166.902L61.7473 173.549L111.553 173.549L105.563 166.732L68.367 166.902Z" fill="#FF9A9F"/>
<path d="M204.514 182.033C204.511 182.473 204.471 182.911 204.393 183.346C203.26 184.079 202.004 184.476 200.659 184.476H137.143C136.832 183.206 137.298 181.436 137.918 180.285C137.606 177.276 138.644 174.149 140.693 171.933C142.743 169.716 145.768 168.446 148.774 168.542C150.135 168.586 151.604 168.868 152.771 168.163C154.148 167.334 154.484 165.524 155.194 164.074C157 160.395 161.799 158.877 165.713 160.032C169.627 161.187 172.63 164.484 174.413 168.176C175.226 169.852 176.034 171.83 177.8 172.401C179.519 172.957 181.294 171.889 183.072 171.566C185.476 171.132 188.09 172.206 189.501 174.215C189.955 174.86 190.424 175.677 191.211 175.724C191.72 175.752 192.174 175.432 192.609 175.165C195.18 173.597 198.659 173.702 201.134 175.419C203.245 176.885 204.523 179.459 204.514 182.033Z" fill="#FF8189"/>
<path d="M-53.2183 159.696C-52.7266 155.668 -49.7388 152.059 -45.8902 150.843C-44.4948 150.402 -42.9913 150.258 -41.5591 150.556C-38.2084 151.253 -35.7108 154.203 -32.4162 155.131C-31.9841 155.253 -31.5232 155.338 -31.0899 155.222C-30.4328 155.047 -29.9812 154.457 -29.5883 153.899C-27.1987 150.503 -25.0131 146.814 -21.6519 144.388C-18.2906 141.962 -13.287 141.196 -10.1622 143.923C-7.83401 145.955 -7.17163 149.269 -6.73088 152.337C-6.5639 153.502 -5.84041 155.049 -4.73975 154.652C-4.35424 154.513 -4.09898 154.155 -3.83014 153.844C-1.45258 151.098 3.74115 151.922 5.16251 155.271C7.12092 152.841 10.2084 151.642 13.2335 150.919C16.7241 150.084 20.4616 149.76 23.8494 150.947C28.6517 152.63 37.3595 162.615 32.2741 162.615C-52.6482 162.615 -52.1624 165.304 -52.6482 162.615" fill="#D34242"/>
<path d="M-35.9807 165.901C-34.7485 162.648 -31.5373 160.25 -28.0843 160.006C-25.9056 159.852 -23.4767 160.424 -21.6992 159.147C-19.7686 157.759 -19.642 154.918 -18.2697 152.971C-16.4731 150.422 -12.7217 149.897 -9.84533 151.076C-6.96867 152.255 -4.83772 154.754 -3.12654 157.361C-2.43824 153.877 -1.61598 150.312 0.401073 147.396C2.41813 144.48 5.91426 142.331 9.39712 142.919C12.4232 143.429 14.8375 145.89 16.131 148.688C17.4249 151.487 17.7854 154.615 18.1293 157.682C21.8587 154.863 27.7661 155.612 30.6841 159.273C32.4175 157.861 35.0867 157.761 36.9192 159.04C38.752 160.32 39.5934 162.87 38.8847 164.997L-35.9807 165.901Z" fill="#FF8189"/>
<path d="M119.949 177.671C120.475 175.962 121.701 174.456 123.319 173.696C124.936 172.937 126.928 172.974 128.459 173.888C129.991 174.803 130.98 176.887 130.83 178.669C127.518 179.195 122.379 180.279 119.949 177.671Z" fill="#FF6978"/>
<path d="M24.2472 171.69C24.7736 169.98 25.9998 168.474 27.6173 167.715C29.2348 166.955 31.2261 166.992 32.7576 167.907C34.2893 168.821 35.2779 170.906 35.1288 172.688C31.817 173.213 26.6778 174.297 24.2472 171.69Z" fill="#FF6978"/>
<path d="M3.62437 170.358C4.57636 167.264 6.79591 164.539 9.72303 163.165C12.6503 161.792 16.2538 161.858 19.0256 163.512C21.7978 165.167 23.5862 168.939 23.3163 172.165C17.3233 173.116 8.02259 175.077 3.62437 170.358Z" fill="#FF6978"/>
<path d="M-2.40471 171.831C-1.91339 170.235 -0.76926 168.83 0.740176 168.121C2.25014 167.413 4.10847 167.447 5.53788 168.3C6.96744 169.153 7.88977 171.099 7.75031 172.762C4.65998 173.252 -0.136541 174.264 -2.40471 171.831Z" fill="#FF6978"/>
<path d="M155.779 177.386C155.766 173.729 157.149 170.084 159.581 167.366C161.97 164.695 165.995 162.935 169.133 164.65C172.401 166.437 173.669 171.355 177.348 171.897C179.439 172.205 181.373 170.894 183.288 169.997C186.72 168.389 190.82 168.058 194.307 169.54C197.794 171.022 204.524 178.099 200.741 178.244" fill="#C72239"/>
<path d="M-28.151 174.364C-28.5893 172.151 -26.6552 169.787 -24.4123 169.793C-23.657 169.796 -22.8671 170.019 -22.1674 169.733C-20.9359 169.231 -20.7751 167.599 -20.3936 166.318C-19.6608 163.86 -17.3314 161.97 -14.7881 161.771C-12.2445 161.571 -9.65178 163.075 -8.54896 165.389C-7.95356 166.638 -7.77146 168.057 -7.1594 169.298C-6.54733 170.539 -5.24975 171.64 -3.90772 171.327C-3.23671 171.171 -2.6873 170.692 -2.0453 170.44C-0.185965 169.711 1.79807 171.01 3.37529 172.24L6.79827 174.909C6.13219 175.006 4.98246 174.949 4.30928 174.965L-28.4596 176.212C-28.4408 175.584 -28.5692 174.83 -28.151 174.364Z" fill="#C72239"/>
<path d="M-28.151 174.364C-28.5893 172.151 -26.6552 169.787 -24.4123 169.793C-23.657 169.796 -22.8671 170.019 -22.1674 169.733C-20.9359 169.231 -20.7751 167.599 -20.3936 166.318C-19.6608 163.86 -17.3314 161.97 -14.7881 161.771C-12.2445 161.571 -9.65178 163.075 -8.54896 165.389C-7.95356 166.638 -7.77146 168.057 -7.1594 169.298C-6.54733 170.539 -5.24975 171.64 -3.90772 171.327C-3.23671 171.171 -2.6873 170.692 -2.0453 170.44C-0.185965 169.711 1.79807 171.01 3.37529 172.24L6.79827 174.909C6.13219 175.006 4.98246 174.949 4.30928 174.965L-28.4596 176.212C-28.4408 175.584 -28.5692 174.83 -28.151 174.364Z" fill="#C72239"/>
<path d="M37.3774 138.72C38.666 137.376 40.7633 136.89 42.5069 137.529C41.4458 139.109 39.0629 139.592 37.3774 138.72Z" fill="#FF8189"/>
<path d="M202.405 183.568V220.49H-29.0856V175.905C15.3544 173.633 59.8655 172.782 104.358 173.35C105.083 173.359 105.583 174.086 105.333 174.772C105.303 174.856 105.278 174.94 105.256 175.023C105.25 175.039 105.247 175.052 105.247 175.064C105.213 175.179 105.191 175.3 105.176 175.424C105.145 175.644 105.136 175.877 105.148 176.11C105.154 176.175 105.157 176.241 105.164 176.306C105.176 176.461 105.201 176.616 105.235 176.772C105.429 177.709 105.945 178.61 106.713 179.156C108.621 180.516 111.176 180.345 113.503 180.119C120.127 179.467 126.754 178.818 133.378 178.169C135.856 177.924 138.332 177.681 140.81 177.439C144.742 177.054 148.755 176.672 152.604 177.56C156.058 178.355 159.194 180.131 162.475 181.475C174.966 186.598 188.951 185.329 202.405 183.568Z" fill="#FF8189"/>
<path d="M201.825 198.578L201.813 198.649C188.92 196.604 175.611 199.103 162.74 201.521C155.246 202.928 147.502 204.384 139.971 204.909C138.008 205.045 136.109 205.114 134.264 205.114C128.18 205.114 122.711 204.368 117.673 202.856C113.747 201.68 109.852 199.966 106.083 198.311C98.5893 195.014 90.8359 191.601 82.6936 192.425C79.2922 192.766 75.931 193.856 72.6777 194.908C68.1374 196.38 63.4397 197.898 58.6618 197.345C54.7851 196.895 51.2108 195.11 47.7539 193.384C45.5038 192.26 43.1766 191.098 40.7783 190.304C33.5249 187.907 25.111 188.5 14.2988 192.167C11.5765 193.092 8.84183 194.145 6.19357 195.16C0.542109 197.333 -5.30381 199.581 -11.3442 200.705C-16.045 201.58 -20.7427 201.627 -24.9311 200.838C-26.388 200.565 -27.7739 200.192 -29.0856 199.73V199.652C-23.9867 201.478 -17.8753 201.847 -11.3565 200.633C-5.32232 199.509 0.520496 197.265 6.16887 195.094C8.81404 194.076 11.5518 193.023 14.2741 192.098C19.1818 190.434 23.5153 189.425 27.5247 189.018C32.3891 188.522 36.8553 188.932 40.7999 190.235C43.2043 191.03 45.5316 192.194 47.7848 193.319C51.2355 195.042 54.8036 196.827 58.671 197.274C63.4336 197.827 68.122 196.308 72.6562 194.84C75.9125 193.784 79.2768 192.694 82.6874 192.353C90.8513 191.533 98.6078 194.942 106.111 198.243C109.877 199.901 113.772 201.614 117.695 202.788C132.304 207.166 147.77 204.26 162.728 201.45C175.605 199.031 188.92 196.529 201.825 198.578Z" fill="#FFDBDC"/>
<path d="M162.323 197.673C161.239 198.527 159.838 198.887 158.495 199.182C147.532 201.594 135.747 201.719 123.472 199.542C122.062 199.294 120.222 198.831 119.225 197.654C118.987 197.375 118.799 197.055 118.673 196.689C118.083 194.966 119.314 193.097 120.842 192.289C122.45 191.436 124.373 191.414 126.065 191.392C128.46 191.364 130.914 191.383 133.287 191.398C138.467 191.432 143.822 191.47 149.013 191.044C149.634 190.991 150.254 190.92 150.856 190.852C152.486 190.662 154.026 190.482 155.671 190.672L155.961 190.706C158.335 190.976 162.757 191.479 163.65 194.031C163.733 194.267 163.779 194.509 163.789 194.748C163.85 195.906 163.137 197.03 162.323 197.673ZM163.859 194.748C163.85 194.503 163.804 194.255 163.718 194.006C162.81 191.411 158.359 190.905 155.967 190.635L155.68 190.6C154.026 190.411 152.483 190.588 150.846 190.78C150.248 190.849 149.628 190.92 149.007 190.973C143.819 191.398 138.467 191.361 133.287 191.327C131.846 191.314 130.377 191.305 128.907 191.305C127.957 191.305 127.006 191.308 126.065 191.321C124.364 191.342 122.435 191.364 120.809 192.224C119.253 193.047 118.003 194.953 118.604 196.714C118.725 197.068 118.907 197.381 119.129 197.654C120.135 198.884 122.015 199.359 123.457 199.614C129.278 200.644 134.985 201.16 140.55 201.16C146.732 201.16 152.735 200.523 158.51 199.25C159.862 198.955 161.273 198.592 162.366 197.729C163.196 197.074 163.918 195.934 163.859 194.748Z" fill="#FFDBDC"/>
<path d="M43.2904 198.81C42.9663 200.511 41.3305 201.673 38.2871 202.356C30.8671 204.026 22.8297 204.827 14.388 204.728C13.2182 204.716 12.178 204.666 11.2552 204.194C10.3693 203.744 9.56064 202.685 9.80139 201.614C9.9588 200.909 10.4712 200.434 11.1039 200.102C11.7367 199.77 12.4898 199.58 13.1287 199.456C15.2245 199.04 17.385 198.658 19.4715 198.286C23.8236 197.516 28.3237 196.721 32.611 195.566C34.574 195.038 36.8735 194.569 38.8458 194.569C40.3891 194.569 41.7348 194.858 42.5589 195.631C43.3151 196.335 43.5589 197.407 43.2904 198.81ZM42.6083 195.578C40.707 193.796 36.1111 194.55 32.5924 195.497C28.3083 196.649 23.8081 197.447 19.4592 198.217C17.3727 198.586 15.2121 198.969 13.1133 199.385C11.8169 199.642 10.0545 200.148 9.7304 201.598C9.48039 202.716 10.2922 203.784 11.2212 204.259C12.1595 204.737 13.2089 204.787 14.388 204.803C14.8386 204.806 15.2862 204.808 15.7368 204.808C23.6878 204.808 31.2745 204.007 38.3026 202.427C41.3768 201.735 43.0311 200.558 43.3614 198.826C43.6361 197.394 43.383 196.302 42.6083 195.578Z" fill="#FFDBDC"/>
<path d="M39.3453 184.077C39.2897 184.515 38.8885 184.869 38.1569 185.126C36.0766 185.856 33.8358 186.002 31.6783 185.549C31.3974 185.487 31.0733 185.409 30.8141 185.229C30.5949 185.079 30.3696 184.8 30.3912 184.468C30.419 184.077 30.7678 183.751 31.4375 183.509C32.9129 182.969 34.5549 182.63 36.1908 182.531C36.8668 182.487 38.4687 182.621 39.0953 183.294C39.299 183.515 39.3854 183.779 39.3453 184.077ZM39.1508 183.242C38.4533 182.493 36.734 182.419 36.1846 182.453C34.5426 182.556 32.8913 182.894 31.4098 183.434C30.7122 183.689 30.3418 184.037 30.314 184.465C30.2955 184.769 30.4684 185.086 30.7678 185.294C31.0425 185.48 31.3727 185.561 31.6629 185.623C32.49 185.797 33.3265 185.884 34.163 185.884C35.5241 185.884 36.8853 185.654 38.1816 185.201C38.944 184.931 39.3638 184.558 39.4224 184.086C39.4656 183.763 39.373 183.481 39.1508 183.242Z" fill="#FFDBDC"/>
<path d="M116.872 206.477C116.662 207.746 115.175 208.361 114.307 208.616C111.267 209.504 107.748 209.442 104.128 208.439C103.56 208.283 102.967 208.097 102.501 207.703C102.085 207.355 101.736 206.731 101.896 206.129C102.085 205.415 102.85 204.986 104.23 204.818C107.187 204.455 109.671 204.117 112.196 203.63C113.416 203.393 115.329 203.726 116.289 204.672C116.792 205.17 116.99 205.775 116.872 206.477ZM116.341 204.617C115.363 203.654 113.419 203.316 112.181 203.555C110.918 203.797 109.668 204.005 108.363 204.194C107.06 204.384 105.702 204.561 104.224 204.741C102.804 204.915 102.02 205.362 101.819 206.11C101.652 206.743 102.017 207.399 102.452 207.762C102.93 208.165 103.557 208.361 104.109 208.513C106.038 209.051 107.94 209.317 109.755 209.317C111.36 209.317 112.897 209.106 114.329 208.69C115.409 208.373 116.739 207.734 116.949 206.489C117.07 205.762 116.866 205.132 116.341 204.617Z" fill="#FFDBDC"/>
<path d="M49.3836 192.875C49.3836 192.875 43.1475 192.974 43.1423 192.974C43.3096 192.711 43.9568 192.114 44.0618 192.032C45.1479 191.187 46.5566 190.639 47.9647 190.255C51.8019 189.207 55.6548 189.204 59.6578 189.482C60.8168 189.562 61.9949 189.72 63.0341 190.168C63.9357 190.558 64.8144 191.174 64.9839 192.046C65.471 194.546 61.4233 195.495 59.2401 195.894C54.7545 196.712 50.2703 196.009 45.8591 195.047C45.5819 194.987 44.551 194.871 44.2303 194.67L49.3836 192.875Z" fill="#FFDBDC"/>
<path d="M73.4402 197.447C73.4402 197.447 69.0586 197.517 69.0549 197.517C69.1725 197.332 69.6271 196.913 69.7009 196.856C70.4639 196.261 71.4537 195.876 72.4433 195.606C75.1394 194.87 77.8466 194.868 80.6593 195.063C81.4736 195.12 82.3014 195.23 83.0317 195.546C83.665 195.819 84.2823 196.253 84.4018 196.865C84.7438 198.622 81.8998 199.289 80.3655 199.569C77.2141 200.143 74.0634 199.649 70.9636 198.974C70.7688 198.931 70.0447 198.85 69.8191 198.708C69.8194 198.708 73.4402 197.447 73.4402 197.447Z" fill="#FFDBDC"/>
<path d="M143.493 190.464C143.493 190.464 137.897 190.554 137.892 190.554C138.042 190.317 138.623 189.782 138.717 189.708C139.692 188.949 140.956 188.458 142.22 188.113C145.664 187.172 149.122 187.17 152.714 187.419C153.754 187.492 154.812 187.633 155.745 188.035C156.554 188.384 157.342 188.938 157.495 189.72C157.932 191.964 154.299 192.816 152.339 193.174C148.314 193.908 144.289 193.277 140.33 192.414C140.081 192.36 139.156 192.256 138.868 192.075L143.493 190.464Z" fill="#FFDBDC"/>
<path d="M110.849 221.257C112.136 216.808 116.335 213.729 120.746 212.394C125.157 211.06 129.847 211.147 134.451 210.989C139.054 210.831 143.814 210.368 147.826 208.093C152.834 205.252 155.949 200.039 159.821 195.765C167.41 187.39 178.564 182.397 189.83 182.333C196.783 182.294 204.079 184.273 208.885 189.328C212.657 193.295 214.535 198.78 215.11 204.241C215.685 209.701 215.066 215.209 214.448 220.664C214.367 221.381 213.145 221.886 212.428 221.886L110.849 221.257Z" fill="#FF6978"/>
<path d="M-36.4328 196.282C-33.3154 190.673 -26.4413 187.456 -20.1686 188.671C-16.361 189.409 -12.9241 191.578 -9.0928 192.179C-3.18547 193.107 2.60983 190.212 8.55791 189.599C16.9925 188.729 25.7534 192.885 30.4508 199.986C33.0132 203.859 34.6645 208.73 38.7131 210.979C42.8334 213.269 47.9302 211.993 52.4328 210.613C56.9355 209.232 61.9601 207.831 66.1825 209.924C69.786 211.71 72.1417 215.792 76.0616 216.675C78.1444 217.144 80.3028 216.605 82.3874 216.145C84.4724 215.686 86.7049 215.315 88.6948 216.092C90.685 216.868 92.2178 219.216 91.3745 221.189C91.3437 221.261 91.6276 221.567 91.6276 221.646H-32.2876C-35.3436 213.604 -35.8143 204.869 -36.4328 196.282Z" fill="#D34242"/>
<path d="M-28.4443 221.939C-29.0573 218.712 -27.89 215.202 -25.4704 212.997C-24.6133 212.216 -23.5969 211.57 -22.9854 210.582C-22.112 209.172 -22.245 207.388 -22.0447 205.737C-21.4842 201.123 -17.9087 197.106 -13.4906 195.741C-9.07223 194.377 -4.03499 195.58 -0.486078 198.558C3.06283 201.536 5.11878 206.141 5.30521 210.787C6.76545 208.277 10.1705 208.389 12.9342 209.242C15.6979 210.095 17.8332 212.398 19.1536 214.985C20.5225 213.676 22.4855 213.023 24.3603 213.252C26.2351 213.482 27.9851 214.59 29.0015 216.191C30.618 214.986 32.8943 215.326 34.6292 216.35C36.3639 217.375 37.3948 219.489 37.1374 221.496L-28.4443 221.939Z" fill="#D34242"/>
<path d="M140.859 221.002C141.681 217.657 145.49 215.389 148.8 216.273C148.737 210.678 152.74 205.287 158.092 203.76C163.443 202.234 169.664 204.708 172.53 209.503C173.824 206.218 177.376 203.985 180.878 204.255C184.38 204.524 187.553 207.274 188.335 210.718C190.039 208.679 193.049 207.864 195.541 208.766C198.032 209.668 199.835 212.227 199.857 214.89C201.902 213.119 205.11 212.873 207.398 214.312C209.687 215.751 210.873 218.76 210.185 221.385L140.859 221.002Z" fill="#D34242"/>
<path d="M176.463 162.61C178.25 161.144 178.566 158.398 177.757 156.226C176.949 154.054 175.244 152.352 173.485 150.852C171.726 149.352 169.839 147.954 168.458 146.096C165.209 141.722 165.374 135.764 165.682 130.312C166.588 130.217 167.64 129.728 168.546 129.633C168.564 133.85 168.702 138.425 171.327 141.713C172.945 143.738 175.301 144.991 177.406 146.495C179.512 147.999 181.53 150.021 181.854 152.598C182.339 156.45 181.548 160.236 178.772 162.935C178.393 163.302 177.973 163.654 177.468 163.805C176.962 163.954 176.795 163.021 176.463 162.61Z" fill="#D34242"/>
<path d="M245.134 80.8568C244.754 83.4903 243.791 86.0272 242.374 88.2785C240.524 91.2327 237.898 93.7001 234.793 95.2681C232.182 96.5885 228.62 96.8397 225.914 95.7313C225.472 100.639 221.956 104.972 217.503 107.026C213.05 109.084 207.825 109.046 203.138 107.613C198.451 106.181 194.29 103.717 190.528 100.558C189.142 104.088 186.175 106.957 182.612 108.2C179.046 109.447 174.95 109.05 171.687 107.146C170.393 106.389 169.172 105.393 167.694 105.165C165.318 104.802 163.195 106.505 161.141 107.764C153.591 112.402 144.078 110.474 137.648 104.362C135.902 104.91 133.99 105.308 132.132 105.362C129.495 105.435 126.957 104.821 125.13 102.968C121.951 99.7359 122.638 94.0631 125.452 90.5028C128.262 86.9425 132.592 85.0116 136.792 83.3242C137.928 82.8684 139.134 82.3704 139.859 81.3781C140.815 80.0613 140.673 78.281 140.719 76.6516C140.876 71.2958 143.725 66.0903 148.136 63.0898C152.546 60.0896 158.723 59.5836 163.721 61.4334C165.898 57.2205 168.117 52.9495 171.353 49.4936C174.585 46.0376 179.03 43.4426 183.748 43.5044C187.456 43.5506 190.999 45.2303 193.902 47.5512C196.804 49.872 199.149 52.8104 201.418 55.7606C203.031 57.8539 204.908 60.1359 207.522 60.4526C209.472 60.6842 211.342 59.7459 213.146 58.9697C217.714 57.0004 222.781 55.9193 227.679 56.7532C232.581 57.5834 237.265 60.5336 239.434 65.0285C242.109 70.5696 246.017 74.7633 245.134 80.8568Z" fill="#FF8189"/>
<path d="M134.513 83.6473C134.044 83.5802 133.548 83.5023 133.182 83.1996C132.815 82.8969 132.656 82.2871 132.982 81.9406C133.242 81.6646 133.671 81.6667 134.048 81.6885C135.045 81.7462 136.041 81.804 137.037 81.8614C136.076 81.1405 135.066 80.3549 134.657 79.2208C134.249 78.0863 134.774 76.5335 135.956 76.3292C136.734 76.1948 137.485 76.6686 138.079 77.1924C139.22 78.1983 142.191 81.9424 141.322 83.6842C140.481 85.3674 136.06 83.868 134.513 83.6473Z" fill="#FF8189"/>
<path d="M139.757 107.769C139.672 108.138 139.575 108.526 139.311 108.796C139.047 109.066 138.557 109.149 138.308 108.865C138.109 108.639 138.142 108.298 138.185 108C138.301 107.212 138.417 106.424 138.533 105.635C137.898 106.348 137.209 107.096 136.289 107.34C135.369 107.584 134.186 107.057 134.109 106.103C134.059 105.474 134.484 104.911 134.938 104.476C135.809 103.64 138.963 101.542 140.269 102.358C141.532 103.146 140.041 106.555 139.757 107.769Z" fill="#FF8189"/>
<path d="M162.666 108.833C163.31 108.423 163.843 107.847 164.179 107.173C164.247 108.021 164.726 108.811 165.414 109.33C166.06 109.817 166.992 109.342 167 108.546C167.005 108.148 166.951 107.749 166.838 107.365C167.287 107.84 167.759 108.322 168.368 108.576C169.231 108.938 170.448 108.726 170.584 107.506C170.616 107.215 170.564 106.92 170.458 106.646C169.734 104.755 167.057 102.417 164.899 103.171C163.519 103.654 162.532 106.5 161.865 108.184C161.675 108.661 162.226 109.114 162.666 108.833Z" fill="#FF8189"/>
<path d="M165.443 84.0133C166.443 81.6962 168.872 80.0792 171.383 80.0581C170.783 82.5662 167.99 84.3142 165.443 84.0133Z" fill="#FF8189"/>
<path d="M129.866 89.5848C130.866 87.2677 133.295 85.6507 135.806 85.6296C135.206 88.1377 132.413 89.8857 129.866 89.5848Z" fill="#FF8189"/>
<path d="M154.157 101.264C156.493 102.189 158.183 104.575 158.291 107.099C155.778 106.582 153.945 103.835 154.157 101.264Z" fill="#FF8189"/>
<path d="M193.199 137.656C192.384 141.201 189.548 144.201 186.069 145.2C182.591 146.2 178.702 145.598 176.146 143.021C176.304 145.66 174.838 148.327 172.535 149.6C170.232 150.87 167.207 150.683 165.081 149.134C162.951 147.585 161.661 145.027 162.143 142.428C161.757 143.446 160.506 144.033 159.485 143.676C158.621 143.374 157.917 142.536 157.917 141.658C157.315 144.744 154.324 147.228 151.185 147.15C147.88 147.066 144.784 144.17 144.574 140.851C144.246 141.804 143.012 142.313 142.117 141.863C141.219 141.416 140.842 140.351 141.401 139.515C141.219 139.568 141.033 139.606 140.845 139.633C138.981 139.916 136.971 139.087 135.882 137.528C134.681 135.815 134.681 133.343 135.879 131.632C137.077 129.919 139.876 128.649 141.882 129.208C141.864 127.121 143.5 125.258 145.463 124.584C147.185 123.995 149.639 124.386 151.509 125.032C151.827 122.653 153.596 120.523 155.873 119.809C158.26 119.061 161.056 119.912 162.63 121.862C163.263 118.806 165.97 116.304 169.047 115.925C172.127 115.546 175.353 117.316 176.702 120.129C178.532 118.688 180.785 118.071 183.1 118.269C185.415 118.468 187.64 119.579 189.202 121.312C190.739 123.023 191.31 125.77 190.091 127.727C190.119 127.751 190.146 127.776 190.174 127.804C192.804 130.245 194.005 134.147 193.199 137.656Z" fill="#FF8189"/>
<path d="M148.198 123.239C148.061 123.022 147.932 122.768 147.997 122.52C148.084 122.19 148.492 122.037 148.823 122.112C149.155 122.187 149.422 122.424 149.674 122.653C149.48 121.992 149.284 121.296 149.438 120.624C149.592 119.952 150.23 119.339 150.901 119.475C151.345 119.565 151.673 119.94 151.927 120.317C152.403 121.02 152.752 121.81 152.952 122.637C153.169 123.534 153.193 124.543 152.69 125.315C151.189 127.616 149.01 124.523 148.198 123.239Z" fill="#FF8189"/>
<path d="M165.443 126.993C166.443 124.676 168.872 123.059 171.383 123.038C170.783 125.546 167.99 127.294 165.443 126.993Z" fill="#FF8189"/>
<path d="M148.477 128.836C150.813 129.762 152.503 132.148 152.611 134.671C150.098 134.154 148.265 131.407 148.477 128.836Z" fill="#FF8189"/>
<path d="M-83.6334 113.863C-82.7176 115.98 -81.3357 117.882 -79.6394 119.441C-77.4205 121.488 -74.6629 122.95 -71.7082 123.55C-69.2235 124.055 -66.1854 123.447 -64.1718 121.898C-62.6887 125.905 -58.7626 128.723 -54.5695 129.42C-50.3758 130.121 -46.0121 128.889 -42.4144 126.613C-38.8164 124.338 -35.8929 121.321 -33.4613 117.814C-31.5004 120.449 -28.366 122.169 -25.1023 122.392C-21.8346 122.617 -18.4968 121.344 -16.1979 119.001C-15.2871 118.071 -14.4914 116.957 -13.3061 116.427C-11.3999 115.577 -9.23683 116.515 -7.23243 117.097C0.139473 119.244 7.66354 115.448 11.6578 108.856C13.2443 108.914 14.9342 108.807 16.5016 108.426C18.7254 107.882 20.7097 106.785 21.8184 104.815C23.7454 101.38 21.8829 96.7902 18.7202 94.4566C15.5605 92.1221 11.4983 91.5005 7.60058 91.0522C6.54621 90.932 5.42456 90.7917 4.59212 90.1279C3.49331 89.2452 3.20811 87.7229 2.80007 86.3695C1.45279 81.9231 -2.11216 78.2206 -6.48425 76.7222C-10.8567 75.2238 -16.1408 76.2186 -19.9042 78.9142C-22.6818 75.8883 -25.5079 72.8232 -29.0006 70.6737C-32.4896 68.5237 -36.7991 67.3724 -40.7335 68.5072C-43.8265 69.3977 -46.4106 71.617 -48.3128 74.2256C-50.215 76.8343 -51.5114 79.8323 -52.7408 82.8222C-53.6152 84.9441 -54.6683 87.2848 -56.7844 88.1504C-58.3638 88.7919 -60.1417 88.4357 -61.8275 88.2004C-66.0978 87.6012 -70.5841 87.8598 -74.4941 89.6823C-78.4085 91.5027 -81.6586 95.0471 -82.454 99.3069C-83.4358 104.559 -85.7551 108.966 -83.6334 113.863Z" fill="#FF8189"/>
<path d="M9.56825 90.8034C9.94573 90.6395 10.3427 90.4606 10.5806 90.1231C10.8183 89.7853 10.8134 89.2389 10.4621 89.0237C10.1825 88.8523 9.8235 88.9526 9.513 89.0573C8.69198 89.3345 7.87126 89.6115 7.05024 89.8884C7.69132 89.0641 8.35863 88.1749 8.44289 87.1316C8.52684 86.0887 7.73576 84.9098 6.70023 85.0101C6.0181 85.0763 5.49709 85.6451 5.11868 86.2201C4.39272 87.3238 2.755 91.1396 3.87851 92.3977C4.96404 93.6129 8.32344 91.3436 9.56825 90.8034Z" fill="#FF8189"/>
<path d="M10.683 112.167C10.8385 112.456 11.0074 112.759 11.2895 112.924C11.5716 113.089 12.0009 113.046 12.1447 112.752C12.2596 112.517 12.1556 112.239 12.0512 111.999C11.7753 111.366 11.4994 110.733 11.2234 110.1C11.9167 110.551 12.663 111.019 13.4883 111.012C14.314 111.005 15.1844 110.292 15.0319 109.476C14.9316 108.938 14.4476 108.564 13.9689 108.304C13.05 107.805 9.9354 106.773 9.02672 107.756C8.1486 108.705 10.17 111.216 10.683 112.167Z" fill="#FF8189"/>
<path d="M32.732 137.176C31.7672 141.374 28.4081 144.926 24.2891 146.11C20.1701 147.294 15.5647 146.58 12.5386 143.529C12.7251 146.654 10.9889 149.812 8.26223 151.319C5.53557 152.823 1.95395 152.603 -0.564362 150.768C-3.08607 148.933 -4.61391 145.904 -4.04382 142.827C-4.50063 144.032 -5.98094 144.727 -7.19086 144.304C-8.21405 143.948 -9.04742 142.955 -9.04742 141.915C-9.76011 145.569 -13.3019 148.511 -17.019 148.419C-20.9334 148.32 -24.5993 144.889 -24.8477 140.959C-25.2351 142.088 -26.6969 142.691 -27.7571 142.157C-28.8204 141.628 -29.2664 140.367 -28.605 139.378C-28.8204 139.44 -29.0399 139.485 -29.2627 139.518C-31.4702 139.852 -33.8497 138.87 -35.1398 137.025C-36.5615 134.996 -36.5615 132.069 -35.1435 130.043C-33.7253 128.014 -30.4103 126.51 -28.0346 127.172C-28.0565 124.701 -26.1194 122.495 -23.7952 121.697C-21.7557 120.999 -18.85 121.462 -16.6351 122.227C-16.2585 119.411 -14.1643 116.889 -11.467 116.043C-8.64154 115.157 -5.3303 116.164 -3.46633 118.473C-2.71723 114.855 0.488148 111.892 4.13212 111.443C7.7798 110.995 11.5991 113.091 13.1964 116.422C15.3638 114.716 18.0321 113.984 20.7729 114.219C23.5144 114.455 26.1494 115.771 27.9988 117.823C29.819 119.848 30.4952 123.102 29.0513 125.418C29.0844 125.448 29.1174 125.477 29.1501 125.51C32.2641 128.4 33.6858 133.021 32.732 137.176Z" fill="#FF8189"/>
<path d="M-0.14917 124.594C1.03483 121.851 3.91056 119.935 6.88414 119.911C6.17331 122.88 2.86669 124.95 -0.14917 124.594Z" fill="#FF8189"/>
<path d="M13.9798 138.006C15.1638 135.263 18.0395 133.348 21.0131 133.323C20.3023 136.293 16.996 138.363 13.9798 138.006Z" fill="#FF8189"/>
<g clip-path="url(#clip1_160_320)">
<path d="M60.6808 115.089H51.7409V173.542H60.6808V115.089Z" fill="#FF8189"/>
<path d="M60.6808 119.585H51.7409C50.5072 119.585 49.506 118.578 49.506 117.337V112.841H62.9158V117.337C62.9158 118.578 61.9145 119.585 60.6808 119.585Z" fill="#C72239"/>
<path d="M114.32 115.089H105.38V173.542H114.32V115.089Z" fill="#FF8189"/>
<path d="M114.32 119.585H105.38C104.146 119.585 103.145 118.578 103.145 117.337V112.841H116.555V117.337C116.555 118.578 115.554 119.585 114.32 119.585Z" fill="#C72239"/>
<path d="M121.025 137.571H45.0361C43.8024 137.571 42.8011 136.564 42.8011 135.323V129.992C42.8011 129.273 43.4492 128.735 44.1465 128.893C48.7014 129.916 64.2947 133.074 83.0304 133.074C101.766 133.074 117.359 129.916 121.914 128.893C122.612 128.735 123.26 129.273 123.26 129.992V135.323C123.26 136.564 122.259 137.571 121.025 137.571Z" fill="#C72239"/>
<path d="M89.7353 112.841H76.3256V139.819H89.7353V112.841Z" fill="#FF6978"/>
<path d="M119.829 115.089H46.2317C45.4853 115.089 44.7857 114.713 44.3722 114.088L40.5661 108.344L83.0304 106.096L125.495 108.344L121.689 114.088C121.273 114.713 120.576 115.089 119.829 115.089Z" fill="#C72239"/>
<path d="M129.29 108.344H36.7711C35.9107 108.344 35.1262 107.863 34.7418 107.101L31.7581 101.195C31.358 100.401 31.9816 99.4818 32.8711 99.5718C38.492 100.141 55.6074 101.6 83.0304 101.6C108.94 101.6 127.305 100.105 133.201 99.5538C134.088 99.4706 134.709 100.388 134.312 101.177L131.321 107.103C130.937 107.863 130.15 108.344 129.29 108.344Z" fill="#963C48"/>
<path opacity="0.05" d="M51.7409 128.083V130.376C54.2888 130.804 57.306 131.253 60.6808 131.68V129.41C57.2836 128.983 54.2664 128.51 51.7409 128.083ZM51.7409 137.571V139.819H60.6808V137.571H51.7409ZM105.38 139.819H114.32V137.571H105.38V139.819ZM105.38 129.41V131.68C108.755 131.253 111.772 130.804 114.32 130.376V128.083C111.794 128.51 108.777 128.983 105.38 129.41Z" fill="#C72239"/>
<path opacity="0.07" d="M51.7409 129.23V130.376C54.2888 130.804 57.306 131.253 60.6808 131.68V130.534C57.2836 130.129 54.2664 129.657 51.7409 129.23ZM51.7409 137.571V138.695H60.6808V137.571H51.7409ZM105.38 138.695H114.32V137.571H105.38V138.695ZM105.38 130.534V131.68C108.755 131.253 111.772 130.804 114.32 130.376V129.23C111.794 129.657 108.777 130.129 105.38 130.534Z" fill="#C72239"/>
<path opacity="0.05" d="M90.8528 132.894C90.4729 132.917 90.1153 132.939 89.7353 132.939V137.571H91.9703V132.849C91.5903 132.872 91.2327 132.872 90.8528 132.894ZM74.0906 132.849V137.571H76.3255V132.939C75.9456 132.939 75.588 132.917 75.2081 132.894C74.8281 132.872 74.4705 132.872 74.0906 132.849Z" fill="#C72239"/>
<path opacity="0.07" d="M89.7353 132.939V137.571H90.8528V132.894C90.4729 132.917 90.1153 132.939 89.7353 132.939ZM75.2081 137.571H76.3256V132.939C75.9456 132.939 75.588 132.917 75.2081 132.894V137.571Z" fill="#C72239"/>
<path d="M85.2654 119.585H80.7955V135.322H85.2654V119.585Z" fill="white"/>
<path opacity="0.05" d="M125.495 108.344L124.757 109.468L123.997 110.592H42.0635L41.3036 109.468L40.5661 108.344H125.495Z" fill="#C72239"/>
<path opacity="0.07" d="M125.495 108.344L124.757 109.468H41.3036L40.5661 108.344H125.495Z" fill="#C72239"/>
<path d="M100.229 179.134C101.297 175.758 103.742 172.801 106.946 171.331C110.151 169.862 114.08 169.977 117.087 171.822C120.094 173.667 122.009 177.819 121.685 181.347C115.141 182.317 104.981 184.353 100.229 179.134Z" fill="#FF6978"/>
</g>
</g>
<rect x="0.338235" y="0.338235" width="168.324" height="217.324" rx="7.77941" stroke="url(#paint0_linear_160_320)" stroke-width="0.676471"/>
</g>
<defs>
<filter id="filter0_b_160_320" x="-67.6471" y="-67.6471" width="304.294" height="353.294" filterUnits="userSpaceOnUse" color-interpolation-filters="sRGB">
<feFlood flood-opacity="0" result="BackgroundImageFix"/>
<feGaussianBlur in="BackgroundImage" stdDeviation="33.8235"/>
<feComposite in2="SourceAlpha" operator="in" result="effect1_backgroundBlur_160_320"/>
<feBlend mode="normal" in="SourceGraphic" in2="effect1_backgroundBlur_160_320" result="shape"/>
</filter>
<linearGradient id="paint0_linear_160_320" x1="84.5" y1="0" x2="84.5" y2="218" gradientUnits="userSpaceOnUse">
<stop stop-color="white" stop-opacity="0.3"/>
<stop offset="1" stop-color="white" stop-opacity="0.15"/>
</linearGradient>
<clipPath id="clip0_160_320">
<rect width="169" height="217.304" fill="white"/>
</clipPath>
<clipPath id="clip1_160_320">
<rect width="107.278" height="107.913" fill="white" transform="translate(29.3913 76.8696)"/>
</clipPath>
</defs>
</svg>
