<svg width="375" height="395" viewBox="0 0 375 395" fill="none" xmlns="http://www.w3.org/2000/svg">
<defs>
<linearGradient id="paint0_linear_3_2267" x1="104" y1="198" x2="278" y2="198" gradientUnits="userSpaceOnUse">
<stop stop-color="#E86EC7"/>
<stop offset="1" stop-color="#42FFBA"/>
</linearGradient>
<linearGradient id="paint1_linear_3_2267" x1="56" y1="198" x2="322" y2="198" gradientUnits="userSpaceOnUse">
<stop stop-color="#E86EC7"/>
<stop offset="1" stop-color="#42FFBA"/>
</linearGradient>
<linearGradient id="paint2_linear_3_2267" x1="-6" y1="197.5" x2="389" y2="197.5" gradientUnits="userSpaceOnUse">
<stop stop-color="#E86EC7"/>
<stop offset="1" stop-color="#42FFBA"/>
</linearGradient>
<clipPath id="clip0_3_2267">
<rect width="132" height="132" fill="white" transform="translate(125 132)"/>
</clipPath>
</defs>
<circle cx="191" cy="198" r="85.5" fill="#161927" fill-opacity="0.1" stroke="url(#paint0_linear_3_2267)" stroke-width="3"/>
<circle cx="189" cy="198" r="131.5" stroke="url(#paint1_linear_3_2267)" stroke-opacity="0.1" stroke-width="3"/>
<g clip-path="url(#clip0_3_2267)">
<path d="M257.014 198.739C257.014 235.192 227.464 264.743 191.008 264.743C154.553 264.743 125 235.192 125 198.739C125 162.285 154.553 132.732 191.008 132.732C227.464 132.732 257.014 162.285 257.014 198.739Z" fill="#34B1E4"/>
<path d="M195.324 241.55C197.347 237.949 195.1 230.523 195.1 228.723C195.1 226.922 184.972 221.973 182.497 221.072C180.022 220.173 178.898 221.523 178.898 221.523C178.898 221.523 164.27 225.797 162.469 228.723C160.669 231.648 149.193 225.797 148.743 223.099C148.292 220.397 145.592 212.296 145.368 211.395C145.141 210.496 133.215 202.17 131.866 201.943C131.232 201.838 128.464 202.824 125.381 204.367C127.98 235.504 152.181 260.483 182.96 264.29C183.184 260.413 182.6 256.802 182.947 252.126C183.398 246.05 184.073 248.75 188.573 246.501C193.073 244.25 193.3 245.151 195.324 241.55Z" fill="#D7DF23"/>
<path d="M207.769 247.27C206.866 249.312 206.946 251.035 209.412 251.788C211.216 252.342 212.841 251.751 214.592 251.343C216.115 250.986 218.164 251.412 219.405 250.333C223.151 247.077 220.079 244.099 216.938 241.856C215.948 241.148 214.916 240.506 213.923 239.805C209.573 236.742 208.809 244.922 207.769 247.27Z" fill="#D7DF23"/>
<path d="M225.353 142.409C221.582 147.906 218.444 155.016 221.305 161.196C226.933 173.347 235.933 168.396 228.282 185.948C220.632 203.502 215.006 195.851 215.905 213.179C216.805 230.505 219.957 240.857 225.807 240.633C231.657 240.407 233.231 217.003 248.534 219.253C250.364 219.525 251.957 219.95 253.36 220.464C255.722 213.673 257.02 206.383 257.02 198.788C257.02 174.913 244.343 154 225.353 142.409Z" fill="#D7DF23"/>
<path d="M147.782 158.238C153.181 161.388 154.307 161.163 161.284 170.841C168.26 180.516 159.033 182.765 156.782 191.092C154.534 199.418 154.982 205.268 158.134 207.969C161.284 210.669 180.637 209.544 179.287 203.018C177.935 196.492 177.711 187.715 177.711 180.065C177.711 172.415 183.337 177.366 190.763 174.215C198.19 171.065 196.839 157.786 196.839 155.313C196.839 152.836 190.763 143.385 186.263 140.685C184.365 139.545 181.188 136.808 178.149 134.022C162.756 137.079 149.298 145.488 139.784 157.226C141.971 157.804 144.843 156.524 147.782 158.238Z" fill="#D7DF23"/>
<path d="M217.98 175.634C216.703 173.882 214.515 173.087 212.397 173.131C211.642 173.147 210.9 173.268 210.207 173.488C207.062 174.493 205.125 177.744 204.738 180.936C204.406 183.653 205.862 193.313 206.086 194.212C206.312 195.113 206.538 197.587 206.312 199.389C206.19 200.364 208.914 199.011 209.198 198.875C210.938 198.033 212.633 197.11 213.654 195.402C214.788 193.513 215.021 191.215 215.871 189.201C217.599 185.113 221.109 179.922 217.98 175.634Z" fill="#D7DF23"/>
<path d="M246.017 208.885C247.537 208.281 248.503 207.869 248.932 206.168C249.795 202.755 247.94 198.927 245.467 196.655C244.027 195.332 242.168 194.617 240.187 194.878C239.568 194.962 238.927 195.116 238.285 195.328C235.61 196.212 232.902 198.121 231.416 200.247C229.86 202.473 230.252 205.242 230.191 207.814C230.148 209.69 230.036 211.562 229.863 213.432C229.7 215.199 227.734 218.286 230.079 219.275C235.002 221.354 236.773 215.909 239.648 212.883C241.355 211.087 243.745 209.787 246.017 208.885Z" fill="#F9F98F"/>
<path d="M232.812 147.605C231.695 149.316 230.921 151.539 230.541 153.095C229.744 156.339 232.349 160.591 235.371 161.753C237.935 162.737 237.069 165.145 236.609 167.278C235.938 170.396 234.796 173.474 234.796 176.7C234.796 180.264 234.988 181.986 238.991 182.137C240.665 182.2 242.493 182.38 243.164 180.545C243.905 178.52 243.51 175.955 243.124 173.888C242.786 172.088 243.01 171.413 243.572 169.726C244.06 168.265 244.698 166.674 244.698 165.114C244.698 163.874 243.349 161.962 242.786 160.273C242.342 158.944 242.526 158.863 242.239 157.019C239.421 153.573 236.262 150.419 232.812 147.605Z" fill="#F9F98F"/>
<path d="M183.275 229.652C181.274 229.563 179.465 230.711 177.616 231.286C176.415 231.657 175.211 232.003 174.01 232.363C172.998 232.668 171.991 232.983 170.994 233.334C166.631 234.868 162.412 237.208 160.28 241.509C159.459 243.166 165.49 243.482 166.15 243.526C169.248 243.733 172.229 242.876 175.261 242.413C178.427 241.932 181.641 241.825 184.794 241.239C187.576 240.725 189.561 239.159 190.275 236.342C191.306 232.299 186.836 229.812 183.275 229.652Z" fill="#F9F98F"/>
<path d="M170.575 155.873C169.941 155.708 168.943 154.847 168.326 154.89C165.042 155.117 167.203 160.431 168.347 161.648C170.325 163.747 172.672 166.108 175.643 163.879C176.845 162.979 178.079 164.378 179.101 164.929C179.59 165.195 182.925 166.986 183.447 166.578C184.834 165.492 186.504 164.466 187.494 162.982C189.797 159.521 189.168 154.639 187.794 150.978C186.373 147.191 182.35 144.127 178.762 142.522C178.089 142.22 177.389 142.104 176.714 142.142C174.096 142.287 172.409 144.734 173.241 147.229C173.249 147.247 174.148 149.936 175.492 152.03C176.844 154.131 175.492 154.428 175.343 155.33C175.116 156.69 171.404 156.088 170.575 155.873Z" fill="#F9F98F"/>
<g opacity="0.2">
<g opacity="0.2">
<path opacity="0.2" d="M139.85 240.411C151.955 255.285 170.396 264.792 191.07 264.792C227.524 264.792 257.074 235.239 257.074 198.786C257.074 183.975 252.199 170.305 243.96 159.293C226.417 186.325 183.343 244.5 139.85 240.411Z" fill="#212A3C"/>
</g>
</g>
<g opacity="0.2">
<g opacity="0.2">
<path opacity="0.2" d="M144.589 245.673C156.513 257.473 172.906 264.762 191.008 264.762C227.462 264.762 257.011 235.209 257.011 198.757C257.012 196.323 256.873 193.924 256.616 191.558C237.693 217.84 197.702 260.38 144.589 245.673Z" fill="#212A3C"/>
</g>
</g>
<g opacity="0.3">
<g opacity="0.3">
<path opacity="0.3" d="M192.625 147.644C197.87 156.282 191.327 169.837 178.012 177.923C164.696 186.009 149.649 185.56 144.403 176.924C139.157 168.283 145.699 154.727 159.015 146.64C172.333 138.554 187.378 139.004 192.625 147.644Z" fill="white"/>
</g>
</g>
</g>
<circle cx="191.5" cy="197.5" r="196" stroke="url(#paint2_linear_3_2267)" stroke-opacity="0.1" stroke-width="3"/>

</svg>
